<?xml version="1.0" encoding="UTF-8" standalone="no"?>
<svg
   width="21"
   height="21"
   fill="none"
   version="1.1"
   id="svg1"
   sodipodi:docname="sun.svg"
   xmlns:inkscape="http://www.inkscape.org/namespaces/inkscape"
   xmlns:sodipodi="http://sodipodi.sourceforge.net/DTD/sodipodi-0.dtd"
   xmlns="http://www.w3.org/2000/svg"
   xmlns:svg="http://www.w3.org/2000/svg">
  <defs
     id="defs1" />
  <sodipodi:namedview
     id="namedview1"
     pagecolor="#ffffff"
     bordercolor="#000000"
     borderopacity="0.25"
     inkscape:showpageshadow="2"
     inkscape:pageopacity="0.0"
     inkscape:pagecheckerboard="0"
     inkscape:deskcolor="#d1d1d1" />
  <path
     fill-rule="evenodd"
     clip-rule="evenodd"
     d="m 11.5,1.4999995 a 1,1 0 1 0 -2.0000005,0 v 1 a 1,1 0 1 0 2.0000005,0 z m -7.2930005,1.293 a 1,1 0 0 0 -1.414,1.414 l 1,1 a 1,1 0 0 0 1.414,-1.414 z m 14.0000005,0 a 1,1 0 0 0 -1.414,0 l -1,1 a 1,1 0 0 0 1.414,1.414 l 1,-1 a 1,1 0 0 0 0,-1.414 z m -7.707,2.707 A 5,5 0 1 0 10.5,15.5 5,5 0 0 0 10.5,5.4999995 Z m -9.0000005,4 a 1,1 0 1 0 0,2.0000005 h 1 a 1,1 0 1 0 0,-2.0000005 z m 17.0000005,0 A 1,1 0 1 0 18.5,11.5 h 1 a 1,1 0 1 0 0,-2.0000005 z M 5.2069995,17.207 a 1,1 0 1 0 -1.414,-1.414 l -1,1 a 1,1 0 1 0 1.414,1.414 z M 17.207,15.793 a 1,1 0 0 0 -1.414,1.414 l 1,1 a 1,1 0 0 0 1.414,-1.414 z M 11.5,18.5 a 1,1 0 1 0 -2.0000005,0 v 1 A 1,1 0 1 0 11.5,19.5 Z"
     fill="currentColor"
     id="path1"
     style="fill:#ffffff;stroke:#ffffff" />
</svg>
